<svg xmlns="http://www.w3.org/2000/svg" viewBox="0 0 864 1536" preserveAspectRatio="xMidYMid slice"><defs><linearGradient id="b" x1="0" y1="0" x2="1" y2="1"><stop stop-color="#010208"/><stop offset=".55" stop-color="#02071a"/><stop offset="1" stop-color="#090526"/></linearGradient><radialGradient id="g1"><stop stop-color="#dca3ff" stop-opacity=".85"/><stop offset=".22" stop-color="#a65eff" stop-opacity=".45"/><stop offset="1" stop-color="#311060" stop-opacity="0"/></radialGradient><radialGradient id="g2"><stop stop-color="#e4efff" stop-opacity=".9"/><stop offset=".15" stop-color="#78a9ff" stop-opacity=".68"/><stop offset="1" stop-color="#17367e" stop-opacity="0"/></radialGradient><linearGradient id="c1" x1="0" x2="1"><stop stop-color="#5f70ff" stop-opacity="0"/><stop offset=".52" stop-color="#a8bbff" stop-opacity=".52"/><stop offset="1" stop-color="#28306b" stop-opacity="0"/></linearGradient><linearGradient id="c2" x1="0" x2="1"><stop stop-color="#8d50ff" stop-opacity="0"/><stop offset=".55" stop-color="#efb4ff" stop-opacity=".58"/><stop offset="1" stop-color="#43205f" stop-opacity="0"/></linearGradient><linearGradient id="f" x1="0" y1="0" x2="0" y2="1"><stop stop-color="#121c48" stop-opacity=".52"/><stop offset=".32" stop-color="#07122e" stop-opacity=".8"/><stop offset="1" stop-color="#010207"/></linearGradient><filter id="blur"><feGaussianBlur stdDeviation="38"/></filter><filter id="blur2"><feGaussianBlur stdDeviation="72"/></filter></defs><rect width="864" height="1536" fill="url(#b)"/><g opacity=".48" filter="url(#blur2)"><ellipse cx="90" cy="1020" rx="280" ry="150" fill="#223b93"/><ellipse cx="470" cy="1080" rx="330" ry="130" fill="#173274"/><ellipse cx="750" cy="990" rx="250" ry="210" fill="#5146cb"/></g><g opacity=".42"><path d="M-100 420 170 50" stroke="#ae65ff" stroke-width="5"/><path d="M-30 500 250 100" stroke="#7765ff" stroke-width="2"/></g><g><rect x="500" y="340" width="44" height="790" fill="url(#c1)"/><rect x="548" y="230" width="50" height="900" fill="url(#c1)" opacity=".8"/><rect x="596" y="85" width="64" height="1045" fill="url(#c2)"/><rect x="660" y="0" width="66" height="1130" fill="url(#c1)" opacity=".9"/><rect x="724" y="180" width="54" height="950" fill="url(#c2)"/><rect x="778" y="560" width="40" height="570" fill="url(#c1)"/><rect x="818" y="665" width="46" height="465" fill="url(#c2)"/><path d="M523 340v790M574 230v900M629 85v1045M694 0v1130M751 180v950" stroke="#9aaaff" stroke-opacity=".55"/></g><ellipse cx="610" cy="1110" rx="190" ry="240" fill="url(#g2)" filter="url(#blur)"/><ellipse cx="785" cy="780" rx="180" ry="260" fill="url(#g1)" filter="url(#blur)"/><rect y="1110" width="864" height="426" fill="url(#f)"/><path d="M0 1128c220-18 410 14 590-2s205-8 274-6" fill="none" stroke="#7898ff" stroke-opacity=".42" stroke-width="2"/><path d="M0 1170c250-16 450 18 650-2s165-12 214-10" fill="none" stroke="#8a6aff" stroke-opacity=".3"/><path d="M0 1235c265-17 475 16 690 2s120-10 174-8" fill="none" stroke="#a879ff" stroke-opacity=".22"/><rect x="520" y="1110" width="150" height="426" fill="#6789ff" opacity=".08"/><rect x="700" y="1110" width="145" height="426" fill="#a35fff" opacity=".09"/></svg>